<svg width="24" height="25" viewBox="0 0 24 25" fill="none" xmlns="http://www.w3.org/2000/svg">
<path d="M6 12.3972C5.46957 12.3972 4.96086 12.1865 4.58579 11.8115C4.21071 11.4364 4 10.9277 4 10.3972C4 9.86681 4.21071 9.35811 4.58579 8.98303C4.96086 8.60796 5.46957 8.39725 6 8.39725M6 12.3972C6.53043 12.3972 7.03914 12.1865 7.41421 11.8115C7.78929 11.4364 8 10.9277 8 10.3972C8 9.86681 7.78929 9.35811 7.41421 8.98303C7.03914 8.60796 6.53043 8.39725 6 8.39725M6 12.3972V20.3972M6 8.39725V4.39725M12 18.3972C11.4696 18.3972 10.9609 18.1865 10.5858 17.8115C10.2107 17.4364 10 16.9277 10 16.3972C10 15.8668 10.2107 15.3581 10.5858 14.983C10.9609 14.608 11.4696 14.3972 12 14.3972M12 18.3972C12.5304 18.3972 13.0391 18.1865 13.4142 17.8115C13.7893 17.4364 14 16.9277 14 16.3972C14 15.8668 13.7893 15.3581 13.4142 14.983C13.0391 14.608 12.5304 14.3972 12 14.3972M12 18.3972V20.3972M12 14.3972V4.39725M18 9.39725C17.4696 9.39725 16.9609 9.18653 16.5858 8.81146C16.2107 8.43639 16 7.92768 16 7.39725C16 6.86681 16.2107 6.35811 16.5858 5.98303C16.9609 5.60796 17.4696 5.39725 18 5.39725M18 9.39725C18.5304 9.39725 19.0391 9.18653 19.4142 8.81146C19.7893 8.43639 20 7.92768 20 7.39725C20 6.86681 19.7893 6.35811 19.4142 5.98303C19.0391 5.60796 18.5304 5.39725 18 5.39725M18 9.39725V20.3972M18 5.39725V4.39725" stroke="#474849" stroke-width="2" stroke-linecap="round" stroke-linejoin="round"/>
</svg>
