<svg width="16" height="15" viewBox="0 0 16 15" fill="none" xmlns="http://www.w3.org/2000/svg">
<path d="M14.3575 1.14436C14.2616 1.04853 14.1401 0.98244 14.0076 0.954061C13.875 0.925681 13.7371 0.936217 13.6104 0.9844L1.89081 5.42024H1.88846C1.75333 5.47221 1.63754 5.56463 1.5569 5.68487C1.47627 5.80512 1.43471 5.94732 1.43792 6.09206C1.44112 6.23681 1.48893 6.37703 1.57481 6.49359C1.66069 6.61014 1.78046 6.69735 1.91776 6.74329L1.92977 6.7471L5.95223 8.46477C6.03069 8.48859 6.11402 8.49141 6.19391 8.47296C6.2738 8.4545 6.34745 8.41541 6.4075 8.3596L12.8634 2.34407C12.8826 2.32483 12.9054 2.30957 12.9306 2.29916C12.9557 2.28875 12.9826 2.28339 13.0098 2.28339C13.0371 2.28339 13.064 2.28875 13.0891 2.29916C13.1143 2.30957 13.1371 2.32483 13.1563 2.34407C13.1756 2.3633 13.1908 2.38614 13.2012 2.41128C13.2116 2.43641 13.217 2.46335 13.217 2.49055C13.217 2.51776 13.2116 2.5447 13.2012 2.56983C13.1908 2.59496 13.1756 2.6178 13.1563 2.63704L7.14051 9.08997C7.0847 9.15003 7.04561 9.22368 7.02715 9.30357C7.0087 9.38345 7.01152 9.46678 7.03534 9.54524L8.7536 13.57C8.75536 13.5759 8.75711 13.5812 8.75916 13.5867C8.85291 13.8583 9.09022 14.0499 9.37704 14.0628H9.40633C9.55113 14.0636 9.69282 14.0209 9.81299 13.9401C9.93316 13.8593 10.0263 13.7443 10.0802 13.6099L14.5154 1.89348C14.5643 1.76671 14.5754 1.62849 14.5474 1.49555C14.5193 1.3626 14.4534 1.24062 14.3575 1.14436Z" fill="white"/>
</svg>
