<svg width="38" height="39" viewBox="0 0 38 39" fill="none" xmlns="http://www.w3.org/2000/svg">
<g id="mage:dots-circle">
<g id="Group">
<path id="Vector" d="M34.0416 19.5891C34.0416 15.5998 32.4568 11.7739 29.636 8.95301C26.8151 6.13215 22.9892 4.54741 18.9999 4.54741C15.0106 4.54741 11.1847 6.13215 8.36385 8.95301C5.54299 11.7739 3.95825 15.5998 3.95825 19.5891C3.95825 23.5784 5.54299 27.4043 8.36385 30.2251C11.1847 33.046 15.0106 34.6307 18.9999 34.6307C22.9892 34.6307 26.8151 33.046 29.636 30.2251C32.4568 27.4043 34.0416 23.5784 34.0416 19.5891Z" fill="#F6F6F6" stroke="#D2D2D2" stroke-linecap="round" stroke-linejoin="round"/>
<path id="Vector_2" d="M12.2486 19.5891C12.2486 19.3065 12.1363 19.0354 11.9365 18.8356C11.7367 18.6358 11.4656 18.5235 11.183 18.5235C10.9004 18.5235 10.6294 18.6358 10.4295 18.8356C10.2297 19.0354 10.1174 19.3065 10.1174 19.5891C10.1174 19.8717 10.2297 20.1427 10.4295 20.3426C10.6294 20.5424 10.9004 20.6547 11.183 20.6547C11.4656 20.6547 11.7367 20.5424 11.9365 20.3426C12.1363 20.1427 12.2486 19.8717 12.2486 19.5891ZM20.0655 19.5891C20.0655 19.3065 19.9532 19.0354 19.7534 18.8356C19.5536 18.6358 19.2825 18.5235 18.9999 18.5235C18.7173 18.5235 18.4463 18.6358 18.2465 18.8356C18.0466 19.0354 17.9343 19.3065 17.9343 19.5891C17.9343 19.8717 18.0466 20.1427 18.2465 20.3426C18.4463 20.5424 18.7173 20.6547 18.9999 20.6547C19.2825 20.6547 19.5536 20.5424 19.7534 20.3426C19.9532 20.1427 20.0655 19.8717 20.0655 19.5891ZM27.8824 19.5891C27.8824 19.3065 27.7702 19.0354 27.5703 18.8356C27.3705 18.6358 27.0995 18.5235 26.8168 18.5235C26.5342 18.5235 26.2632 18.6358 26.0634 18.8356C25.8635 19.0354 25.7513 19.3065 25.7513 19.5891C25.7513 19.8717 25.8635 20.1427 26.0634 20.3426C26.2632 20.5424 26.5342 20.6547 26.8168 20.6547C27.0995 20.6547 27.3705 20.5424 27.5703 20.3426C27.7702 20.1427 27.8824 19.8717 27.8824 19.5891Z" fill="#767778" stroke="#767778" stroke-width="1.5" stroke-linecap="round" stroke-linejoin="round"/>
</g>
</g>
</svg>
