<svg width="20" height="21" viewBox="0 0 20 21" fill="none" xmlns="http://www.w3.org/2000/svg">
<g id="famicons:archive">
<path id="Vector" d="M2.5 6.80353V16.3348C2.5 16.9149 2.73047 17.4713 3.1407 17.8816C3.55094 18.2918 4.10734 18.5223 4.6875 18.5223H15.3125C15.8927 18.5223 16.4491 18.2918 16.8593 17.8816C17.2695 17.4713 17.5 16.9149 17.5 16.3348V6.80353C17.5 6.76209 17.4835 6.72234 17.4542 6.69304C17.4249 6.66374 17.3852 6.64728 17.3438 6.64728H2.65625C2.61481 6.64728 2.57507 6.66374 2.54576 6.69304C2.51646 6.72234 2.5 6.76209 2.5 6.80353ZM12.9297 12.7266L10.4418 15.2141C10.3246 15.3312 10.1657 15.397 10 15.397C9.83431 15.397 9.6754 15.3312 9.5582 15.2141L7.07031 12.7266C6.83242 12.4887 6.81055 12.1016 7.03711 11.8524C7.09398 11.7897 7.16298 11.7393 7.23993 11.7041C7.31688 11.6689 7.40018 11.6497 7.48477 11.6476C7.56936 11.6456 7.65348 11.6607 7.73204 11.6922C7.8106 11.7236 7.88196 11.7707 7.9418 11.8305L9.375 13.2633V9.16486C9.375 8.82853 9.63359 8.53986 9.96992 8.52306C10.0544 8.51899 10.1389 8.53212 10.2182 8.56165C10.2974 8.59118 10.3699 8.6365 10.4312 8.69486C10.4924 8.75323 10.5412 8.82342 10.5745 8.90119C10.6078 8.97895 10.625 9.06267 10.625 9.14728V13.2633L12.0582 11.8305C12.118 11.7707 12.1894 11.7236 12.268 11.6922C12.3465 11.6607 12.4306 11.6456 12.5152 11.6476C12.5998 11.6497 12.6831 11.6689 12.7601 11.7041C12.837 11.7393 12.906 11.7897 12.9629 11.8524C13.1895 12.1012 13.1676 12.4887 12.9297 12.7266Z" fill="#767778"/>
<path id="Vector_2" d="M17.5 2.27228H2.5C1.80964 2.27228 1.25 2.83192 1.25 3.52228V4.14728C1.25 4.83763 1.80964 5.39728 2.5 5.39728H17.5C18.1904 5.39728 18.75 4.83763 18.75 4.14728V3.52228C18.75 2.83192 18.1904 2.27228 17.5 2.27228Z" fill="#767778"/>
</g>
</svg>
