<svg width="20" height="21" viewBox="0 0 20 21" fill="none" xmlns="http://www.w3.org/2000/svg">
<g id="mdi:calendar">
<path id="Vector" d="M15.8333 16.4224H4.16667V7.25576H15.8333M13.3333 1.42242V3.08909H6.66667V1.42242H5V3.08909H4.16667C3.24167 3.08909 2.5 3.83076 2.5 4.75576V16.4224C2.5 16.8645 2.67559 17.2884 2.98816 17.6009C3.30072 17.9135 3.72464 18.0891 4.16667 18.0891H15.8333C16.2754 18.0891 16.6993 17.9135 17.0118 17.6009C17.3244 17.2884 17.5 16.8645 17.5 16.4224V4.75576C17.5 4.31373 17.3244 3.88981 17.0118 3.57725C16.6993 3.26469 16.2754 3.08909 15.8333 3.08909H15V1.42242M14.1667 10.5891H10V14.7558H14.1667V10.5891Z" fill="#767778"/>
</g>
</svg>
