<svg width="20" height="21" viewBox="0 0 20 21" fill="none" xmlns="http://www.w3.org/2000/svg">
<path id="Vector" d="M10 0.589081C4.48625 0.589081 0 5.07533 0 10.5891C0 16.1028 4.48625 20.5891 10 20.5891C15.5138 20.5891 20 16.1028 20 10.5891C20 5.07533 15.5138 0.589081 10 0.589081ZM3.75 10.5891C3.75 9.54908 4.03 8.58408 4.48 7.72033L12.8687 16.1091C11.9858 16.5814 11.0013 16.8319 10 16.8391C6.55375 16.8391 3.75 14.0353 3.75 10.5891ZM15.52 13.4578L7.13125 5.06908C8.01417 4.59675 8.99871 4.34622 10 4.33908C13.4462 4.33908 16.25 7.14283 16.25 10.5891C16.25 11.6291 15.97 12.5941 15.52 13.4578Z" fill="#90080F"/>
</svg>
