<svg width="20" height="21" viewBox="0 0 20 21" fill="none" xmlns="http://www.w3.org/2000/svg">
<g id="tabler:clock-filled">
<path id="Vector" d="M14.1665 3.37241C15.4234 4.09812 16.469 5.13951 17.1997 6.39349C17.9304 7.64747 18.321 9.07055 18.3327 10.5219C18.3444 11.9732 17.9769 13.4024 17.2665 14.668C16.5561 15.9336 15.5275 16.9918 14.2825 17.7377C13.0375 18.4836 11.6193 18.8914 10.1683 18.9208C8.7172 18.9502 7.28363 18.6 6.00947 17.9051C4.7353 17.2102 3.66473 16.1945 2.90373 14.9587C2.14272 13.7228 1.71768 12.3097 1.67067 10.8591L1.6665 10.5891L1.67067 10.3191C1.71734 8.8799 2.13613 7.47737 2.8862 6.24823C3.63628 5.01909 4.69205 4.00528 5.95058 3.30564C7.20911 2.606 8.62746 2.2444 10.0673 2.2561C11.5072 2.2678 12.9195 2.6524 14.1665 3.37241ZM9.99984 5.58907C9.79573 5.5891 9.59872 5.66404 9.44619 5.79967C9.29366 5.9353 9.19622 6.1222 9.17234 6.32491L9.1665 6.42241V10.5891L9.174 10.6982C9.193 10.8428 9.24961 10.9799 9.33817 11.0957L9.41067 11.1791L11.9107 13.6791L11.989 13.7474C12.1351 13.8608 12.3149 13.9223 12.4998 13.9223C12.6848 13.9223 12.8645 13.8608 13.0107 13.7474L13.089 13.6782L13.1582 13.5999C13.2716 13.4538 13.3331 13.274 13.3331 13.0891C13.3331 12.9041 13.2716 12.7244 13.1582 12.5782L13.089 12.4999L10.8332 10.2432V6.42241L10.8273 6.32491C10.8035 6.1222 10.706 5.9353 10.5535 5.79967C10.401 5.66404 10.2039 5.5891 9.99984 5.58907Z" fill="#767778"/>
</g>
</svg>
