<svg xmlns="http://www.w3.org/2000/svg" width="50" height="35" viewBox="0 0 50 35" fill="none">
  <path d="M20.65 23C20.398 23 20.1564 22.8999 19.9782 22.7218C19.8001 22.5436 19.7 22.302 19.7 22.05V19.2H15.9C15.3961 19.2 14.9128 18.9998 14.5565 18.6435C14.2002 18.2872 14 17.8039 14 17.3V5.9C14 5.39609 14.2002 4.91282 14.5565 4.5565C14.9128 4.20018 15.3961 4 15.9 4H31.1C31.6039 4 32.0872 4.20018 32.4435 4.5565C32.7998 4.91282 33 5.39609 33 5.9V17.3C33 17.8039 32.7998 18.2872 32.4435 18.6435C32.0872 18.9998 31.6039 19.2 31.1 19.2H25.305L21.79 22.7245C21.6 22.905 21.3625 23 21.125 23H20.65ZM16.85 6.85V8.75H30.15V6.85H16.85ZM16.85 10.65V12.55H24.45V10.65H16.85ZM16.85 14.45V16.35H26.35V14.45H16.85Z" fill="#8B46C0"/>
  <path d="M16.8496 14.4496V16.3496H26.3496V14.4496H16.8496Z" fill="white"/>
  <path d="M16.8496 10.6496V12.5496H24.4496V10.6496H16.8496Z" fill="white"/>
  <path d="M16.8496 6.84961V8.74961H30.1496V6.84961H17.3246H16.8496Z" fill="white"/>
  <path d="M16.8496 14.4496V16.3496H26.3496V14.4496H16.8496Z" stroke="white" stroke-width="0.00651429"/>
  <path d="M16.8496 10.6496V12.5496H24.4496V10.6496H16.8496Z" stroke="white" stroke-width="0.00651429"/>
  <path d="M16.8496 6.84961V8.74961H30.1496V6.84961H17.3246H16.8496Z" stroke="white" stroke-width="0.00651429"/>
</svg>