<svg xmlns="http://www.w3.org/2000/svg" width="50" height="35" viewBox="0 0 50 35" fill="none">
<path d="M21.65 23C21.398 23 21.1564 22.8999 20.9782 22.7218C20.8001 22.5436 20.7 22.302 20.7 22.05V19.2H16.9C16.3961 19.2 15.9128 18.9998 15.5565 18.6435C15.2002 18.2872 15 17.8039 15 17.3V5.9C15 5.39609 15.2002 4.91282 15.5565 4.5565C15.9128 4.20018 16.3961 4 16.9 4H32.1C32.6039 4 33.0872 4.20018 33.4435 4.5565C33.7998 4.91282 34 5.39609 34 5.9V17.3C34 17.8039 33.7998 18.2872 33.4435 18.6435C33.0872 18.9998 32.6039 19.2 32.1 19.2H26.305L22.79 22.7245C22.6 22.905 22.3625 23 22.125 23H21.65ZM17.85 6.85V8.75H31.15V6.85H17.85ZM17.85 10.65V12.55H25.45V10.65H17.85ZM17.85 14.45V16.35H27.35V14.45H17.85Z" fill="#8B46C0"/>
<path d="M17.8496 14.4496V16.3496H27.3496V14.4496H17.8496Z" fill="white"/>
<path d="M17.8496 10.6496V12.5496H25.4496V10.6496H17.8496Z" fill="white"/>
<path d="M17.8496 6.84961V8.74961H31.1496V6.84961H18.3246H17.8496Z" fill="white"/>
<path d="M17.8496 14.4496V16.3496H27.3496V14.4496H17.8496Z" stroke="white" strokeWidth="0.00651429"/>
<path d="M17.8496 10.6496V12.5496H25.4496V10.6496H17.8496Z" stroke="white" strokeWidth="0.00651429"/>
<path d="M17.8496 6.84961V8.74961H31.1496V6.84961H18.3246H17.8496Z" stroke="white" strokeWidth="0.00651429"/>
</svg>