<svg width="20" height="21" viewBox="0 0 20 21" fill="none" xmlns="http://www.w3.org/2000/svg">
<g id="material-symbols:edit-rounded">
<path id="Vector" d="M3.33333 18.0891C3.09722 18.0891 2.89944 18.0091 2.74 17.8491C2.58056 17.6891 2.50056 17.4913 2.5 17.2557V15.2349C2.5 15.0127 2.54167 14.8007 2.625 14.5991C2.70833 14.3974 2.82639 14.2205 2.97917 14.0682L13.5 3.56825C13.6667 3.41547 13.8508 3.29741 14.0525 3.21408C14.2542 3.13075 14.4658 3.08908 14.6875 3.08908C14.9092 3.08908 15.1244 3.13075 15.3333 3.21408C15.5422 3.29741 15.7228 3.42241 15.875 3.58908L17.0208 4.75575C17.1875 4.90853 17.3089 5.08908 17.385 5.29741C17.4611 5.50575 17.4994 5.71408 17.5 5.92241C17.5 6.14464 17.4617 6.35658 17.385 6.55825C17.3083 6.75991 17.1869 6.9438 17.0208 7.10991L6.52083 17.6099C6.36806 17.7627 6.19083 17.8807 5.98917 17.9641C5.7875 18.0474 5.57583 18.0891 5.35417 18.0891H3.33333ZM14.6667 7.08908L15.8333 5.92241L14.6667 4.75575L13.5 5.92241L14.6667 7.08908Z" fill="#767778"/>
</g>
</svg>
