<svg width="20" height="21" viewBox="0 0 20 21" fill="none" xmlns="http://www.w3.org/2000/svg">
<g id="tabler:adjustments">
<path id="Vector" d="M5.00016 10.1918C4.55814 10.1918 4.13421 10.0162 3.82165 9.70366C3.50909 9.3911 3.3335 8.96717 3.3335 8.52515C3.3335 8.08312 3.50909 7.6592 3.82165 7.34664C4.13421 7.03407 4.55814 6.85848 5.00016 6.85848M5.00016 10.1918C5.44219 10.1918 5.86611 10.0162 6.17867 9.70366C6.49123 9.3911 6.66683 8.96717 6.66683 8.52515C6.66683 8.08312 6.49123 7.6592 6.17867 7.34664C5.86611 7.03407 5.44219 6.85848 5.00016 6.85848M5.00016 10.1918V16.8585M5.00016 6.85848V3.52515M10.0002 15.1918C9.55814 15.1918 9.13421 15.0162 8.82165 14.7037C8.50909 14.3911 8.3335 13.9672 8.3335 13.5251C8.3335 13.0831 8.50909 12.6592 8.82165 12.3466C9.13421 12.0341 9.55814 11.8585 10.0002 11.8585M10.0002 15.1918C10.4422 15.1918 10.8661 15.0162 11.1787 14.7037C11.4912 14.3911 11.6668 13.9672 11.6668 13.5251C11.6668 13.0831 11.4912 12.6592 11.1787 12.3466C10.8661 12.0341 10.4422 11.8585 10.0002 11.8585M10.0002 15.1918V16.8585M10.0002 11.8585V3.52515M15.0002 7.69181C14.5581 7.69181 14.1342 7.51622 13.8217 7.20366C13.5091 6.8911 13.3335 6.46717 13.3335 6.02515C13.3335 5.58312 13.5091 5.1592 13.8217 4.84664C14.1342 4.53407 14.5581 4.35848 15.0002 4.35848M15.0002 7.69181C15.4422 7.69181 15.8661 7.51622 16.1787 7.20366C16.4912 6.8911 16.6668 6.46717 16.6668 6.02515C16.6668 5.58312 16.4912 5.1592 16.1787 4.84664C15.8661 4.53407 15.4422 4.35848 15.0002 4.35848M15.0002 7.69181V16.8585M15.0002 4.35848V3.52515" stroke="#767778" stroke-width="2" stroke-linecap="round" stroke-linejoin="round"/>
</g>
</svg>
