<svg width="20" height="21" viewBox="0 0 20 21" fill="none" xmlns="http://www.w3.org/2000/svg">
<g id="logos:google-calendar">
<path id="Vector" d="M15.2631 5.13416H4.73682V15.6604H15.2631V5.13416Z" fill="white"/>
<path id="Vector_2" d="M15.2633 20.3973L20.0002 15.6604L17.6318 15.2563L15.2633 15.6604L14.8311 17.8268L15.2633 20.3973Z" fill="#EA4335"/>
<path id="Vector_3" d="M0 15.6604V18.8183C0 19.6907 0.706562 20.3973 1.57891 20.3973H4.73688L5.2232 18.0288L4.73688 15.6604L2.15617 15.2563L0 15.6604Z" fill="#188038"/>
<path id="Vector_4" d="M20.0002 5.13415V1.97618C20.0002 1.10384 19.2936 0.397278 18.4213 0.397278H15.2633C14.9752 1.57197 14.8311 2.43644 14.8311 2.99072C14.8311 3.54493 14.9751 4.25941 15.2633 5.13415C16.311 5.43415 17.1005 5.58415 17.6318 5.58415C18.1631 5.58415 18.9525 5.43421 20.0002 5.13415Z" fill="#1967D2"/>
<path id="Vector_5" d="M20.0001 5.13416H15.2632V15.6604H20.0001V5.13416Z" fill="#FBBC04"/>
<path id="Vector_6" d="M15.2631 15.6604H4.73682V20.3973H15.2631V15.6604Z" fill="#34A853"/>
<path id="Vector_7" d="M15.2631 0.397278H1.57898C0.706563 0.397278 0 1.10384 0 1.97618V15.6604H4.73688V5.13415H15.2631V0.397278Z" fill="#4285F4"/>
<path id="Vector_8" d="M6.89607 13.2999C6.50264 13.0342 6.23021 12.646 6.08154 12.1328L6.99475 11.7565C7.07756 12.0723 7.2223 12.317 7.42896 12.4907C7.6342 12.6644 7.8842 12.7499 8.17631 12.7499C8.47495 12.7499 8.73152 12.6591 8.946 12.4775C9.16053 12.296 9.26842 12.0644 9.26842 11.7842C9.26842 11.4973 9.15527 11.2631 8.92896 11.0815C8.70264 10.8999 8.41842 10.8092 8.07896 10.8092H7.55131V9.90526H8.02498C8.31706 9.90526 8.56311 9.82627 8.76311 9.6683C8.96311 9.51049 9.06311 9.29463 9.06311 9.01963C9.06311 8.77494 8.97365 8.58018 8.79475 8.43416C8.61584 8.28807 8.38943 8.2144 8.11443 8.2144C7.846 8.2144 7.63287 8.28549 7.47498 8.42885C7.31714 8.57262 7.19849 8.75421 7.13021 8.95651L6.22631 8.58018C6.346 8.24073 6.56576 7.94073 6.88811 7.68151C7.21045 7.42229 7.62232 7.29205 8.12232 7.29205C8.49209 7.29205 8.82498 7.36315 9.11975 7.50651C9.41443 7.64994 9.646 7.84862 9.81311 8.10127C9.98029 8.35518 10.0631 8.6394 10.0631 8.95518C10.0631 9.27752 9.98553 9.54994 9.83029 9.77362C9.67506 9.99729 9.4842 10.1683 9.25787 10.2881V10.342C9.5501 10.4625 9.80395 10.6604 9.99209 10.9144C10.1829 11.171 10.279 11.4775 10.279 11.8355C10.279 12.1933 10.1881 12.5131 10.0065 12.7933C9.82498 13.0736 9.57373 13.2946 9.25521 13.4552C8.93553 13.6157 8.57631 13.6974 8.17764 13.6974C7.71576 13.6986 7.28951 13.5657 6.89607 13.2999ZM12.5051 8.7683L11.5026 9.4933L11.0012 8.73283L12.7999 7.43541H13.4894V13.5552H12.5051V8.7683Z" fill="#4285F4"/>
</g>
</svg>
