<svg width="21" height="21" viewBox="0 0 21 21" fill="none" xmlns="http://www.w3.org/2000/svg">
<g id="weui:location-filled">
<path id="Vector" fillRule="evenodd" clip-rule="evenodd" d="M9.88492 19.0341C9.88492 19.0341 3.83325 13.9374 3.83325 8.9224C3.83325 7.15429 4.53563 5.4586 5.78587 4.20836C7.03612 2.95812 8.73181 2.25574 10.4999 2.25574C12.268 2.25574 13.9637 2.95812 15.214 4.20836C16.4642 5.4586 17.1666 7.15429 17.1666 8.9224C17.1666 13.9374 11.1149 19.0341 11.1149 19.0341C10.7783 19.3441 10.2241 19.3407 9.88492 19.0341ZM10.4999 11.8391C10.8829 11.8391 11.2622 11.7636 11.6161 11.6171C11.9699 11.4705 12.2915 11.2556 12.5623 10.9848C12.8332 10.714 13.048 10.3924 13.1946 10.0386C13.3411 9.6847 13.4166 9.30543 13.4166 8.9224C13.4166 8.53938 13.3411 8.16011 13.1946 7.80624C13.048 7.45238 12.8332 7.13085 12.5623 6.86001C12.2915 6.58917 11.9699 6.37433 11.6161 6.22776C11.2622 6.08118 10.8829 6.00574 10.4999 6.00574C9.72637 6.00574 8.98451 6.31303 8.43752 6.86001C7.89054 7.40699 7.58325 8.14886 7.58325 8.9224C7.58325 9.69595 7.89054 10.4378 8.43752 10.9848C8.98451 11.5318 9.72637 11.8391 10.4999 11.8391Z" fill="#767778"/>
</g>
</svg>
