<svg width="16" height="20" viewBox="0 0 16 20" fill="none" xmlns="http://www.w3.org/2000/svg">
<path d="M1.78273 0.5C0.802228 0.5 0 1.31429 0 2.30952V16.7857C0 17.781 0.802228 18.5952 1.78273 18.5952H5.34819V16.8762L14.2618 7.82857V5.92857L8.91365 0.5H1.78273ZM8.02228 1.85714L12.9248 6.83333H8.02228V1.85714ZM14.351 10.4524C14.2618 10.4524 14.0836 10.5429 13.9944 10.6333L13.1031 11.5381L14.9749 13.4381L15.8663 12.5333C16.0446 12.3524 16.0446 11.9905 15.8663 11.8095L14.7075 10.6333C14.6184 10.5429 14.5292 10.4524 14.351 10.4524ZM12.5682 12.081L7.13092 17.6V19.5H9.00279L14.4401 13.981L12.5682 12.081Z" fill="#718096"/>
</svg>
