<svg width="21" height="20" viewBox="0 0 21 20" fill="none" xmlns="http://www.w3.org/2000/svg">
<g id="bi:person-fill">
<path id="Vector" d="M3.91699 17.5C3.91699 17.5 2.66699 17.5 2.66699 16.25C2.66699 15 3.91699 11.25 10.167 11.25C16.417 11.25 17.667 15 17.667 16.25C17.667 17.5 16.417 17.5 16.417 17.5H3.91699ZM10.167 10C11.1616 10 12.1154 9.60491 12.8186 8.90165C13.5219 8.19839 13.917 7.24456 13.917 6.25C13.917 5.25544 13.5219 4.30161 12.8186 3.59835C12.1154 2.89509 11.1616 2.5 10.167 2.5C9.17243 2.5 8.2186 2.89509 7.51534 3.59835C6.81208 4.30161 6.41699 5.25544 6.41699 6.25C6.41699 7.24456 6.81208 8.19839 7.51534 8.90165C8.2186 9.60491 9.17243 10 10.167 10Z" fill="#718096"/>
</g>
</svg>
