<svg width="20" height="21" viewBox="0 0 20 21" fill="none" xmlns="http://www.w3.org/2000/svg">
<g id="bi:person-fill">
<path id="Vector" d="M3.75 18.0891C3.75 18.0891 2.5 18.0891 2.5 16.8391C2.5 15.5891 3.75 11.8391 10 11.8391C16.25 11.8391 17.5 15.5891 17.5 16.8391C17.5 18.0891 16.25 18.0891 16.25 18.0891H3.75ZM10 10.5891C10.9946 10.5891 11.9484 10.194 12.6517 9.49073C13.3549 8.78747 13.75 7.83364 13.75 6.83908C13.75 5.84452 13.3549 4.89069 12.6517 4.18743C11.9484 3.48417 10.9946 3.08908 10 3.08908C9.00544 3.08908 8.05161 3.48417 7.34835 4.18743C6.64509 4.89069 6.25 5.84452 6.25 6.83908C6.25 7.83364 6.64509 8.78747 7.34835 9.49073C8.05161 10.194 9.00544 10.5891 10 10.5891Z" fill="#767778"/>
</g>
</svg>
