<svg width="24" height="25" viewBox="0 0 24 25" fill="none" xmlns="http://www.w3.org/2000/svg">
<g id="material-symbols:add-rounded">
<path id="Vector" d="M11 13.3973H6C5.71667 13.3973 5.47934 13.3013 5.288 13.1093C5.09667 12.9173 5.00067 12.6799 5 12.3973C4.99934 12.1146 5.09534 11.8773 5.288 11.6853C5.48067 11.4933 5.718 11.3973 6 11.3973H11V6.39728C11 6.11395 11.096 5.87661 11.288 5.68528C11.48 5.49395 11.7173 5.39795 12 5.39728C12.2827 5.39661 12.5203 5.49261 12.713 5.68528C12.9057 5.87795 13.0013 6.11528 13 6.39728V11.3973H18C18.2833 11.3973 18.521 11.4933 18.713 11.6853C18.905 11.8773 19.0007 12.1146 19 12.3973C18.9993 12.6799 18.9033 12.9176 18.712 13.1103C18.5207 13.3029 18.2833 13.3986 18 13.3973H13V18.3973C13 18.6806 12.904 18.9183 12.712 19.1103C12.52 19.3023 12.2827 19.3979 12 19.3973C11.7173 19.3966 11.48 19.3006 11.288 19.1093C11.096 18.9179 11 18.6806 11 18.3973V13.3973Z" fill="white"/>
</g>
</svg>
