<svg width="10" height="8" viewBox="0 0 10 8" fill="none" xmlns="http://www.w3.org/2000/svg">
<g id="Vector">
<path id="Vector_2" d="M0.500301 7.58907H9.50056C9.59168 7.58879 9.681 7.56365 9.7589 7.51638C9.8368 7.46911 9.90034 7.40148 9.94267 7.32079C9.98499 7.24009 10.0045 7.14938 9.99912 7.05841C9.99373 6.96745 9.96363 6.87968 9.91207 6.80455L5.41194 0.304365C5.22544 0.034857 4.77642 0.034857 4.58942 0.304365L0.0892894 6.80455C0.0372003 6.87952 0.00665413 6.96734 0.00096949 7.05845C-0.00471515 7.14957 0.0146792 7.2405 0.0570455 7.32137C0.0994117 7.40223 0.163129 7.46994 0.241276 7.51714C0.319422 7.56434 0.409008 7.58921 0.500301 7.58907ZM5.00043 1.4674L8.54653 6.58904H1.45433L5.00043 1.4674Z" fill="#767778"/>
</g>
</svg>
