<svg width="16" height="16" viewBox="0 0 16 16" fill="none" xmlns="http://www.w3.org/2000/svg">
<g id=".right-icon">
<path id="Vector" d="M11.8909 9.99179C12.0786 9.80401 12.3331 9.69847 12.5986 9.69838C12.864 9.69828 13.1186 9.80365 13.3064 9.99129C13.4942 10.1789 13.5997 10.4335 13.5998 10.6989C13.5999 10.9644 13.4946 11.219 13.3069 11.4068L9.00691 15.7068C8.81938 15.8943 8.56507 15.9996 8.29991 15.9996C8.03475 15.9996 7.78044 15.8943 7.59291 15.7068L3.29291 11.4068C3.10527 11.2189 2.99996 10.9641 3.00015 10.6986C3.00033 10.433 3.106 10.1784 3.29391 9.99079C3.48182 9.80315 3.73657 9.69783 4.00212 9.69802C4.26767 9.69821 4.52227 9.80388 4.70991 9.99179L8.29991 13.5828L11.8909 9.99179ZM11.8909 6.00779L8.29991 2.41679L4.70891 6.00779C4.52127 6.19556 4.26672 6.3011 4.00126 6.3012C3.73581 6.30129 3.48118 6.19593 3.29341 6.00829C3.10564 5.82065 3.00009 5.5661 3 5.30064C2.99991 5.03518 3.10527 4.78056 3.29291 4.59279L7.59291 0.292786C7.78044 0.105315 8.03475 0 8.29991 0C8.56507 0 8.81938 0.105315 9.00691 0.292786L13.3069 4.59279C13.3998 4.68576 13.4735 4.79613 13.5238 4.91758C13.574 5.03904 13.5999 5.1692 13.5998 5.30064C13.5998 5.43208 13.5738 5.56223 13.5235 5.68364C13.4732 5.80506 13.3994 5.91538 13.3064 6.00829C13.2134 6.1012 13.1031 6.17488 12.9816 6.22514C12.8602 6.2754 12.73 6.30124 12.5986 6.3012C12.4671 6.30115 12.337 6.27521 12.2156 6.22487C12.0941 6.17453 11.9838 6.10076 11.8909 6.00779Z" fill="#718096"/>
</g>
</svg>
