<svg width="24" height="25" viewBox="0 0 24 25" fill="none" xmlns="http://www.w3.org/2000/svg">
<g id="material-symbols:search-rounded">
<path id="Vector" d="M9.5 16.1918C7.68333 16.1918 6.146 15.5625 4.888 14.3038C3.63 13.0452 3.00067 11.5078 3 9.69183C2.99933 7.87583 3.62867 6.3385 4.888 5.07983C6.14733 3.82117 7.68467 3.19183 9.5 3.19183C11.3153 3.19183 12.853 3.82117 14.113 5.07983C15.373 6.3385 16.002 7.87583 16 9.69183C16 10.4252 15.8833 11.1168 15.65 11.7668C15.4167 12.4168 15.1 12.9918 14.7 13.4918L20.3 19.0918C20.4833 19.2752 20.575 19.5085 20.575 19.7918C20.575 20.0752 20.4833 20.3085 20.3 20.4918C20.1167 20.6752 19.8833 20.7668 19.6 20.7668C19.3167 20.7668 19.0833 20.6752 18.9 20.4918L13.3 14.8918C12.8 15.2918 12.225 15.6085 11.575 15.8418C10.925 16.0752 10.2333 16.1918 9.5 16.1918ZM9.5 14.1918C10.75 14.1918 11.8127 13.7545 12.688 12.8798C13.5633 12.0052 14.0007 10.9425 14 9.69183C13.9993 8.44117 13.562 7.37883 12.688 6.50483C11.814 5.63083 10.7513 5.19317 9.5 5.19183C8.24867 5.1905 7.18633 5.62817 6.313 6.50483C5.43967 7.3815 5.002 8.44383 5 9.69183C4.998 10.9398 5.43567 12.0025 6.313 12.8798C7.19033 13.7572 8.25267 14.1945 9.5 14.1918Z" fill="#767778"/>
</g>
</svg>
