<svg width="25" height="24" viewBox="0 0 25 24" fill="none" xmlns="http://www.w3.org/2000/svg">
<g id="material-symbols:event-rounded">
<path id="Vector" d="M14.6794 18C13.9794 18 13.3878 17.7583 12.9044 17.275C12.4211 16.7917 12.1794 16.2 12.1794 15.5C12.1794 14.8 12.4211 14.2083 12.9044 13.725C13.3878 13.2417 13.9794 13 14.6794 13C15.3794 13 15.9711 13.2417 16.4544 13.725C16.9378 14.2083 17.1794 14.8 17.1794 15.5C17.1794 16.2 16.9378 16.7917 16.4544 17.275C15.9711 17.7583 15.3794 18 14.6794 18ZM5.17944 22C4.62944 22 4.15878 21.8043 3.76744 21.413C3.37611 21.0217 3.18011 20.5507 3.17944 20V6C3.17944 5.45 3.37544 4.97933 3.76744 4.588C4.15944 4.19667 4.63011 4.00067 5.17944 4H6.17944V3C6.17944 2.71667 6.27544 2.47933 6.46744 2.288C6.65944 2.09667 6.89678 2.00067 7.17944 2C7.46211 1.99933 7.69978 2.09533 7.89244 2.288C8.08511 2.48067 8.18078 2.718 8.17944 3V4H16.1794V3C16.1794 2.71667 16.2754 2.47933 16.4674 2.288C16.6594 2.09667 16.8968 2.00067 17.1794 2C17.4621 1.99933 17.6998 2.09533 17.8924 2.288C18.0851 2.48067 18.1808 2.718 18.1794 3V4H19.1794C19.7294 4 20.2004 4.196 20.5924 4.588C20.9844 4.98 21.1801 5.45067 21.1794 6V20C21.1794 20.55 20.9838 21.021 20.5924 21.413C20.2011 21.805 19.7301 22.0007 19.1794 22H5.17944ZM5.17944 20H19.1794V10H5.17944V20Z" fill="#474849"/>
</g>
</svg>
